# xmcd
#
# Track frame offsets: 
#        150
#        16419
#        30821
#        47845
#        60764
#        78644
#        89466
#        105874
#        120110
#        136653
#        154913
#        175062
#        188608
#        206326
#        210870
#
# Disc length: 3047 seconds
#
# Revision: 0
# Processed by: cddbd v1.5.2PL0 Copyright (c) Steve Scherf et al.
# Submitted via: ExactAudioCopy v1.0b1
#
DISCID=a10be50f
DTITLE=Various Artist - Cow Hear This Vol 3
DYEAR=2006
DGENRE=Country
TTITLE0=Walk Away - Stoney LaRue
TTITLE1=The Right Place - Aaron Watson
TTITLE2=Small Town Kid - Eli Young Band
TTITLE3=House Of Negotiable Affections - Zona Jones
TTITLE4=Crazy - Willie Nelson
TTITLE5=Your Heart Turned Left - Jason Allen
TTITLE6=Lifetime Stand - Cooder Graw
TTITLE7=Pointless Love - Micky and the Motorcars
TTITLE8=Maybe In Mexico - Tommy Alverson
TTITLE9=Buckaroo Tattoo - Brenn Hill
TTITLE10=Out Here In The Middle - Robert Earl Keen
TTITLE11=Wasted - Jamie Richards
TTITLE12=Perfectly Normal - Gary P. Nunn
TTITLE13=Cowboy Song (Introduction) -  The Great Divide
TTITLE14=Cowboy Song - The Great Divide
EXTD=
EXTT0=
EXTT1=
EXTT2=
EXTT3=
EXTT4=
EXTT5=
EXTT6=
EXTT7=
EXTT8=
EXTT9=
EXTT10=
EXTT11=
EXTT12=
EXTT13=
EXTT14=
PLAYORDER=
